
<svg width="24" height="24" viewBox="0 0 24 24" fill="none" xmlns="http://www.w3.org/2000/svg">
  <path d="M6 2C4.89543 2 4 2.89543 4 4V20C4 20.5523 4.44772 21 5 21C5.27614 21 5.52614 20.8946 5.70711 20.7071L7.29289 19.1213C7.68342 18.7308 8.31658 18.7308 8.70711 19.1213L10.2929 20.7071C10.6834 21.0976 11.3166 21.0976 11.7071 20.7071L13.2929 19.1213C13.6834 18.7308 14.3166 18.7308 14.7071 19.1213L16.2929 20.7071C16.6834 21.0976 17.3166 21.0976 17.7071 20.7071L19.2929 19.1213C19.6834 18.7308 20.3166 18.7308 20.7071 19.1213L22.2929 20.7071C22.4739 20.8946 22.7239 21 23 21C23.5523 21 24 20.5523 24 20V4C24 2.89543 23.1046 2 22 2H6ZM6 0H22C24.2091 0 26 1.79086 26 4V20C26 21.1046 25.1046 22 24 22C23.2761 22 22.5261 21.8946 22.2929 21.7071L20.7071 20.1213C20.3166 19.7308 19.6834 19.7308 19.2929 20.1213L17.7071 21.7071C17.3166 22.0976 16.6834 22.0976 16.2929 21.7071L14.7071 20.1213C14.3166 19.7308 13.6834 19.7308 13.2929 20.1213L11.7071 21.7071C11.3166 22.0976 10.6834 22.0976 10.2929 21.7071L8.70711 20.1213C8.31658 19.7308 7.68342 19.7308 7.29289 20.1213L5.70711 21.7071C5.52614 21.8946 5.27614 22 5 22C3.89543 22 3 21.1046 3 20V4C3 1.79086 4.79086 0 6 0ZM8 5C7.44772 5 7 5.44772 7 6C7 6.55228 7.44772 7 8 7H16C16.5523 7 17 6.55228 17 6C17 5.44772 16.5523 5 16 5H8ZM8 9C7.44772 9 7 9.44772 7 10C7 10.5523 7.44772 11 8 11H16C16.5523 11 17 10.5523 17 10C17 9.44772 16.5523 9 16 9H8ZM7 14C7 13.4477 7.44772 13 8 13H12C12.5523 13 13 13.4477 13 14C13 14.5523 12.5523 15 12 15H8C7.44772 15 7 14.5523 7 14Z" fill="#637381"/>
</svg>
