<svg width="24" height="24" viewBox="0 0 24 24" fill="none" xmlns="http://www.w3.org/2000/svg">
  <path d="M12 2C10.3431 2 9 3.34315 9 5C9 6.65685 10.3431 8 12 8C13.6569 8 15 6.65685 15 5C15 3.34315 13.6569 2 12 2Z" fill="#637381"/>
  <path d="M4 9C2.89543 9 2 9.89543 2 11V19C2 20.1046 2.89543 21 4 21H20C21.1046 21 22 20.1046 22 19V11C22 9.89543 21.1046 9 20 9H4ZM4 11H20V19H4V11Z" fill="#637381"/>
  <path d="M8 11H16V13H8V11Z" fill="#637381"/>
  <path d="M7 15H17V17H7V15Z" fill="#637381"/>
  <path d="M12 5C11.4477 5 11 4.55228 11 4C11 3.44772 11.4477 3 12 3C12.5523 3 13 3.44772 13 4C13 4.55228 12.5523 5 12 5Z" fill="#fff"/>
</svg>
